#N canvas 584 165 693 555 10;
#X declare -lib mrpeach;
#X obj -50 458 print;
#X obj -58 27 import mrpeach;
#X obj 74 107 unpackOSC;
#X obj -54 175 routeOSC /COG;
#X obj -2 401 mtof;
#X obj 2 475 osc~;
#X obj 37 520 dac~;
#X text 60 347 convert to midi note value (0 - 127);
#X text 62 400 [mtof] converts MIDI notes to frequency in Hertz.;
#X text 48 474 [osc~] makes a cosine waveform.;
#X text 79 519 Line out to soundcard.;
#X obj 97 175 routeOSC /AFF;
#X obj 234 175 routeOSC /EXP;
#X obj -56 229 routeOSC /PUSH;
#X obj 253 229 routeOSC /WINK_LEFT;
#X obj 218 137 print;
#X text 221 26 Example of how to route OSC packets into a usable format
with Mind Your OSCs;
#X text 261 127 Used print here to print ALL the data coming in Refer
to console to get find other paths;
#X obj -61 71 udpreceive 7400;
#X obj 100 229 routeOSC /Meditation;
#X obj 395 331 print;
#X text -5 274;
#X obj 13 297 * -60;
#X obj -4 347 + 60;
#X connect 2 0 3 0;
#X connect 2 0 11 0;
#X connect 2 0 12 0;
#X connect 3 0 13 0;
#X connect 4 0 0 0;
#X connect 4 0 6 0;
#X connect 5 0 6 0;
#X connect 11 0 19 0;
#X connect 12 0 14 0;
#X connect 18 0 2 0;
#X connect 19 0 22 0;
#X connect 22 0 23 0;
#X connect 23 0 4 0;
